<?xml version="1.0" encoding="UTF-8"?>
<!DOCTYPE svg PUBLIC "-//W3C//DTD SVG 1.1//EN" "http://www.w3.org/Graphics/SVG/1.1/DTD/svg11.dtd">
<svg xmlns="http://www.w3.org/2000/svg" version="1.1" width="500px" height="500px" style="shape-rendering:geometricPrecision; text-rendering:geometricPrecision; image-rendering:optimizeQuality; fill-rule:evenodd; clip-rule:evenodd" xmlns:xlink="http://www.w3.org/1999/xlink">
<g><path style="opacity:0" fill="#fefefe" d="M -0.5,-0.5 C 166.167,-0.5 332.833,-0.5 499.5,-0.5C 499.5,166.167 499.5,332.833 499.5,499.5C 332.833,499.5 166.167,499.5 -0.5,499.5C -0.5,332.833 -0.5,166.167 -0.5,-0.5 Z"/></g>
<g><path style="opacity:1" fill="#909090" d="M 147.5,165.5 C 152.844,165.334 158.177,165.501 163.5,166C 173.663,170.485 177.997,178.319 176.5,189.5C 169.743,189.123 163.076,189.623 156.5,191C 148.826,195.332 145.659,201.832 147,210.5C 150.048,214.01 153.381,214.343 157,211.5C 157.798,208.457 158.965,205.624 160.5,203C 165.708,201.603 171.041,201.103 176.5,201.5C 176.5,213.5 176.5,225.5 176.5,237.5C 167.494,237.666 158.494,237.5 149.5,237C 147.147,234.3 145.647,231.134 145,227.5C 139.181,223.853 135.681,225.353 134.5,232C 135.04,240.072 139.04,245.739 146.5,249C 156.494,249.5 166.494,249.666 176.5,249.5C 176.5,255.5 176.5,261.5 176.5,267.5C 167.494,267.334 158.494,267.5 149.5,268C 145.5,271.667 145.5,275.333 149.5,279C 158.494,279.5 167.494,279.666 176.5,279.5C 176.5,287.5 176.5,295.5 176.5,303.5C 171.489,303.666 166.489,303.499 161.5,303C 159.147,300.3 157.647,297.134 157,293.5C 150.841,289.757 147.341,291.423 146.5,298.5C 147.184,306.359 151.184,311.859 158.5,315C 164.491,315.499 170.491,315.666 176.5,315.5C 175.749,324.517 171.083,330.35 162.5,333C 143.637,334.452 126.97,329.119 112.5,317C 82.533,289.972 73.6996,257.139 86,218.5C 97.7695,190.555 118.269,172.888 147.5,165.5 Z"/></g>
<g><path style="opacity:1" fill="#909090" d="M 201.5,165.5 C 216.652,164.489 224.152,171.489 224,186.5C 220.578,198.301 212.745,203.134 200.5,201C 190.46,196.272 186.627,188.439 189,177.5C 191.744,171.921 195.911,167.921 201.5,165.5 Z"/></g>
<g><path style="opacity:1" fill="#909090" d="M 237.5,189.5 C 253.667,188.833 261.167,196.5 260,212.5C 254.916,223.791 246.416,227.624 234.5,224C 226.158,218.666 222.991,211.166 225,201.5C 227.769,195.895 231.936,191.895 237.5,189.5 Z"/></g>
<g><path style="opacity:1" fill="#fafafa" d="M 129.5,195.5 C 132.649,195.211 135.649,195.711 138.5,197C 141.791,204.07 139.457,207.737 131.5,208C 130.667,208.833 129.833,209.667 129,210.5C 128.327,219.802 124.327,221.802 117,216.5C 115.367,209.265 117.533,203.431 123.5,199C 125.432,197.541 127.432,196.375 129.5,195.5 Z"/></g>
<g><path style="opacity:1" fill="#949494" d="M 190.5,201.5 C 193.282,204.224 196.615,205.891 200.5,206.5C 200.146,212.356 197.146,214.523 191.5,213C 187.84,209.517 187.506,205.684 190.5,201.5 Z"/></g>
<g><path style="opacity:1" fill="#919191" d="M 215.5,213.5 C 216.978,213.238 218.311,213.571 219.5,214.5C 220.306,217.446 221.639,220.112 223.5,222.5C 214.853,227.826 205.853,232.659 196.5,237C 190.171,237.668 187.671,234.834 189,228.5C 189.833,227.667 190.667,226.833 191.5,226C 199.739,222.102 207.739,217.935 215.5,213.5 Z"/></g>
<g><path style="opacity:1" fill="#f9f9f9" d="M 107.5,219.5 C 115.52,219.392 117.854,222.892 114.5,230C 107.243,232.746 104.077,230.246 105,222.5C 106.045,221.627 106.878,220.627 107.5,219.5 Z"/></g>
<g><path style="opacity:1" fill="#848484" d="M 353.5,224.5 C 360.199,224.229 362.199,227.229 359.5,233.5C 354.699,235.75 351.699,234.417 350.5,229.5C 351.092,227.577 352.092,225.911 353.5,224.5 Z"/></g>
<g><path style="opacity:1" fill="#818181" d="M 327.5,227.5 C 327.334,235.84 327.5,244.173 328,252.5C 328.717,251.956 329.217,251.289 329.5,250.5C 331.683,249.15 333.35,247.316 334.5,245C 334.012,243.416 333.012,242.249 331.5,241.5C 331.709,240.914 332.043,240.414 332.5,240C 336.821,239.501 341.154,239.334 345.5,239.5C 342.483,244.031 338.816,248.198 334.5,252C 336.939,252.774 338.773,254.274 340,256.5C 342.336,260.187 344.336,263.853 346,267.5C 343.263,268.61 340.429,268.777 337.5,268C 334.153,263.619 330.986,259.119 328,254.5C 327.333,257.833 327.333,261.167 328,264.5C 329.706,265.308 330.539,266.641 330.5,268.5C 325.833,268.5 321.167,268.5 316.5,268.5C 316.461,266.641 317.294,265.308 319,264.5C 319.667,253.5 319.667,242.5 319,231.5C 317.795,230.929 316.628,230.262 315.5,229.5C 317.768,227.125 320.601,225.792 324,225.5C 325.699,225.387 326.866,226.053 327.5,227.5 Z"/></g>
<g><path style="opacity:1" fill="#848484" d="M 368.5,226.5 C 371.5,226.5 374.5,226.5 377.5,226.5C 376.943,240.637 377.61,254.637 379.5,268.5C 375.154,268.666 370.821,268.499 366.5,268C 365.378,266.387 365.878,265.22 368,264.5C 368.667,253.5 368.667,242.5 368,231.5C 366.294,230.692 365.461,229.359 365.5,227.5C 366.791,227.737 367.791,227.404 368.5,226.5 Z"/></g>
<g><path style="opacity:1" fill="#808080" d="M 385.5,226.5 C 388.5,226.5 391.5,226.5 394.5,226.5C 394.333,239.171 394.5,251.838 395,264.5C 397.122,265.22 397.622,266.387 396.5,268C 392.179,268.499 387.846,268.666 383.5,268.5C 383.461,266.641 384.294,265.308 386,264.5C 386.667,253.833 386.667,243.167 386,232.5C 384.926,231.382 383.76,230.382 382.5,229.5C 383.34,228.265 384.34,227.265 385.5,226.5 Z"/></g>
<g><path style="opacity:1" fill="#d7d7d7" d="M 327.5,227.5 C 328.167,235.167 328.833,242.833 329.5,250.5C 329.217,251.289 328.717,251.956 328,252.5C 327.5,244.173 327.334,235.84 327.5,227.5 Z"/></g>
<g><path style="opacity:1" fill="#858585" d="M 294.5,229.5 C 300.011,229.82 305.344,230.32 310.5,231C 311.46,234.73 311.793,238.563 311.5,242.5C 309.833,242.5 308.167,242.5 306.5,242.5C 305.838,236.33 302.505,233.83 296.5,235C 293.646,238.6 294.313,241.6 298.5,244C 303.964,245.814 308.464,248.98 312,253.5C 314.085,263.413 310.085,268.747 300,269.5C 296.995,269.519 294.162,268.852 291.5,267.5C 289.202,269.03 287.369,268.696 286,266.5C 285.58,262.809 285.08,259.142 284.5,255.5C 286.5,255.5 288.5,255.5 290.5,255.5C 291.632,262.474 295.632,265.307 302.5,264C 303.833,261.667 303.833,259.333 302.5,257C 298.5,254.667 294.5,252.333 290.5,250C 282.823,241.193 284.156,234.36 294.5,229.5 Z"/></g>
<g><path style="opacity:1" fill="#848484" d="M 401.5,260.5 C 401.5,258.833 401.5,257.167 401.5,255.5C 403.167,255.5 404.833,255.5 406.5,255.5C 407.669,262.519 411.669,265.352 418.5,264C 421.265,261.034 420.932,258.367 417.5,256C 411.127,253.946 406.294,250.112 403,244.5C 401.313,235.347 405.146,230.347 414.5,229.5C 418.5,230 422.5,230.5 426.5,231C 427.46,234.73 427.793,238.563 427.5,242.5C 426.127,242.657 424.793,242.49 423.5,242C 421.999,235.503 418.166,233.336 412,235.5C 411.333,237.5 411.333,239.5 412,241.5C 416.247,244.708 420.747,247.542 425.5,250C 432.164,258.981 430.164,265.314 419.5,269C 415.482,269.852 411.649,269.352 408,267.5C 406.234,268.233 404.401,268.567 402.5,268.5C 401.908,265.873 401.575,263.206 401.5,260.5 Z"/></g>
<g><path style="opacity:1" fill="#838383" d="M 465.5,230.5 C 467.722,230.178 469.556,230.845 471,232.5C 471.497,234.81 471.663,237.143 471.5,239.5C 473.5,239.5 475.5,239.5 477.5,239.5C 477.938,243.908 475.938,245.575 471.5,244.5C 471.334,250.176 471.501,255.843 472,261.5C 473.796,262.767 475.629,262.767 477.5,261.5C 478.76,263.353 478.76,265.186 477.5,267C 472.564,269.415 468.064,268.915 464,265.5C 462.616,258.589 462.116,251.589 462.5,244.5C 461.5,244.5 460.5,244.5 459.5,244.5C 461.991,240.17 463.991,235.504 465.5,230.5 Z"/></g>
<g><path style="opacity:1" fill="#909090" d="M 250.5,231.5 C 265.666,231.165 272.833,238.498 272,253.5C 266.728,266.551 257.561,270.384 244.5,265C 234.309,255.264 233.976,245.264 243.5,235C 245.925,233.787 248.259,232.621 250.5,231.5 Z"/></g>
<g><path style="opacity:1" fill="#fbfbfb" d="M 107.5,237.5 C 114.329,236.828 117.163,239.828 116,246.5C 114.605,254.228 110.105,259.062 102.5,261C 98.1667,261.667 93.8333,261.667 89.5,261C 85.2525,256.837 85.5859,253.171 90.5,250C 94.6192,249.857 98.6192,249.19 102.5,248C 103.617,244.172 105.284,240.672 107.5,237.5 Z"/></g>
<g><path style="opacity:1" fill="#808080" d="M 354.5,238.5 C 356.167,238.5 357.833,238.5 359.5,238.5C 359.334,247.173 359.5,255.84 360,264.5C 361.706,265.308 362.539,266.641 362.5,268.5C 358.154,268.666 353.821,268.499 349.5,268C 348.378,266.387 348.878,265.22 351,264.5C 351.667,257.833 351.667,251.167 351,244.5C 349.842,244.002 349.009,243.169 348.5,242C 350.223,240.251 352.223,239.084 354.5,238.5 Z"/></g>
<g><path style="opacity:1" fill="#848484" d="M 455.5,254.5 C 450.833,254.5 446.167,254.5 441.5,254.5C 441.263,255.791 441.596,256.791 442.5,257.5C 442.624,259.582 443.624,261.082 445.5,262C 448.916,262.893 452.083,262.393 455,260.5C 457.033,263.097 456.533,265.263 453.5,267C 438.446,270.952 431.613,265.118 433,249.5C 436.725,239.585 443.558,236.751 453.5,241C 457.724,245.158 458.391,249.658 455.5,254.5 Z"/></g>
<g><path style="opacity:1" fill="#f9f9f9" d="M 444.5,242.5 C 445.822,242.33 446.989,242.663 448,243.5C 448.497,245.81 448.663,248.143 448.5,250.5C 446.5,250.5 444.5,250.5 442.5,250.5C 442.107,247.487 442.774,244.82 444.5,242.5 Z"/></g>
<g><path style="opacity:1" fill="#919191" d="M 192.5,243.5 C 205.167,243.5 217.833,243.5 230.5,243.5C 230.5,247.5 230.5,251.5 230.5,255.5C 217.496,255.667 204.496,255.5 191.5,255C 187.307,250.683 187.64,246.85 192.5,243.5 Z"/></g>
<g><path style="opacity:1" fill="#c6c6c6" d="M 406.5,255.5 C 404.833,255.5 403.167,255.5 401.5,255.5C 401.5,257.167 401.5,258.833 401.5,260.5C 400.539,258.735 400.205,256.735 400.5,254.5C 402.735,254.205 404.735,254.539 406.5,255.5 Z"/></g>
<g><path style="opacity:1" fill="#bebebe" d="M 455.5,254.5 C 450.906,254.865 446.573,255.865 442.5,257.5C 441.596,256.791 441.263,255.791 441.5,254.5C 446.167,254.5 450.833,254.5 455.5,254.5 Z"/></g>
<g><path style="opacity:1" fill="#929292" d="M 191.5,261.5 C 193.199,261.34 194.866,261.506 196.5,262C 205.853,266.341 214.853,271.174 223.5,276.5C 221.304,279.56 219.637,282.893 218.5,286.5C 209.5,282 200.5,277.5 191.5,273C 187.555,269.169 187.555,265.336 191.5,261.5 Z"/></g>
<g><path style="opacity:1" fill="#f8f8f8" d="M 131.5,267.5 C 139.52,267.392 141.854,270.892 138.5,278C 131.243,280.746 128.077,278.246 129,270.5C 130.045,269.627 130.878,268.627 131.5,267.5 Z"/></g>
<g><path style="opacity:1" fill="#fafafa" d="M 113.5,273.5 C 120.042,272.875 123.209,275.875 123,282.5C 123.833,283.333 124.667,284.167 125.5,285C 133.488,285.33 135.821,288.997 132.5,296C 129.298,297.483 125.964,297.817 122.5,297C 111.417,291.891 108.417,284.058 113.5,273.5 Z"/></g>
<g><path style="opacity:1" fill="#919191" d="M 237.5,273.5 C 253.688,272.853 261.188,280.52 260,296.5C 254.199,308.817 245.032,312.317 232.5,307C 222.246,297.296 221.912,287.296 231.5,277C 233.727,276.059 235.727,274.892 237.5,273.5 Z"/></g>
<g><path style="opacity:1" fill="#949494" d="M 191.5,285.5 C 196.652,284.907 199.986,287.074 201.5,292C 197.375,292.704 193.875,294.537 191,297.5C 187.54,293.289 187.707,289.289 191.5,285.5 Z"/></g>
<g><path style="opacity:1" fill="#909090" d="M 201.5,297.5 C 216.672,296.51 224.172,303.51 224,318.5C 219.99,331.257 211.49,335.757 198.5,332C 189.317,326.126 186.484,317.96 190,307.5C 192.794,302.866 196.627,299.533 201.5,297.5 Z"/></g>
</svg>
